<svg viewBox="47.07403007518796 53.4 126.23036090225563 79.80000000000001" xmlns="http://www.w3.org/2000/svg" id="a">
    <defs>
        <style>
            .b {
                fill: #1d1d1b;
            }

            .b,
            .c,
            .d,
            .e {
                stroke-width: 0px;
            }

            .c {
                fill: #222222;
            }

            .d {
                fill: #d6e224;
            }

            .e {
                fill: #fff;
            }
        </style>
    </defs>

    <path d="M66.09,92.94v-29.46c0-4.18-3.4-7.59-7.59-7.59s-7.59,3.4-7.59,7.59v29.46" class="d"/>
    <path d="M66.09,91.78v29.46c0,4.18-3.4,7.59-7.59,7.59s-7.59-3.4-7.59-7.59v-29.46" class="d"/>
    <path d="M105.82,113.69v-50.2c0-4.18-3.4-7.59-7.59-7.59s-7.59,3.4-7.59,7.59v28.29h0v29.46c0,4.09,3.26,7.43,7.31,7.57.19.03.37.06.55.06h42.88s0-15.17,0-15.17h-35.57Z" class="d"/>
    <polygon points="165.14 125.18 149.3 126.22 149.3 116.32 165.14 117.37 165.14 125.18" class="c"/>
    <path d="M144.69,112.37h2.68c.24,0,.44.32.44.71v2.15s0,12.09,0,12.09v2.15c0,.39-.2.71-.44.71h-2.68c-.24,0-.44-.32-.44-.71v-3.25s0-9.89,0-9.89v-3.25c0-.39.2-.71.44-.71Z" class="c"/>
    <path d="M167.17,116.64h1.69c.15,0,.28.17.28.37v1.12s0,6.3,0,6.3v1.12c0,.2-.13.37-.28.37h-1.69c-.15,0-.28-.17-.28-.37v-1.69s0-5.15,0-5.15v-1.69c0-.2.13-.37.28-.37Z" class="c"/>
    <path d="M86.05,92.94v-29.46c0-4.18-3.4-7.59-7.59-7.59s-7.59,3.4-7.59,7.59v29.46" class="d"/>
    <path d="M86.05,91.78v29.46c0,4.18-3.4,7.59-7.59,7.59s-7.59-3.4-7.59-7.59v-29.46" class="d"/>
</svg>
