<?xml version="1.0" encoding="UTF-8"?><svg id="a" xmlns="http://www.w3.org/2000/svg" viewBox="0 0 199.39 187.23"><defs><style>.b{fill:#1d1d1b;}.b,.c,.d,.e{stroke-width:0px;}.c{fill:#e20613;}.d{fill:#28348a;}.e{fill:#fff;}</style></defs><path class="c" d="M161.85,140.32h-91.7s0,0,0,0h-18.04v17.72h76.28s0,0,0,0h33.46c4.54,0,8.23-3.98,8.23-8.86s-3.69-8.86-8.23-8.86Z"/><path class="e" d="M78.94,153.03c-2.28,0-4.03-1.75-4.03-3.93s1.75-3.77,4.03-3.77,4.03,1.56,4.03,3.77-1.76,3.93-4.03,3.93ZM78.94,147.25c-1.47,0-2.12.85-2.12,1.95s.64,1.92,2.11,1.92,2.12-.81,2.12-1.92-.64-1.95-2.11-1.95Z"/><path class="e" d="M87.04,152.94c-1.49,0-2.55-.89-2.55-2.49,0-.7.4-1.29.86-1.55-.29-.21-.68-.63-.68-1.5,0-1.31,1.04-1.97,2.6-1.97h3c1.56,0,2.61.66,2.61,1.97,0,.87-.4,1.29-.69,1.5.45.26.86.85.86,1.55,0,1.6-1.06,2.49-2.55,2.49h-3.45ZM87.08,149.84c-.42,0-.63.24-.63.6s.21.59.63.59h3.37c.42,0,.63-.23.63-.59s-.21-.6-.63-.6h-3.37ZM87.21,147.32c-.42,0-.62.23-.62.55s.2.54.62.54h3.1c.42,0,.62-.22.62-.54s-.2-.55-.62-.55h-3.1Z"/><path class="e" d="M94.42,149.75v-1.25h2.57v1.25h-2.57Z"/><path class="e" d="M102.3,153.03c-2.28,0-4.03-1.75-4.03-3.93s1.75-3.77,4.03-3.77,4.03,1.56,4.03,3.77-1.76,3.93-4.03,3.93ZM102.3,147.25c-1.47,0-2.12.85-2.12,1.95s.64,1.92,2.11,1.92,2.12-.81,2.12-1.92-.64-1.95-2.11-1.95Z"/><path class="e" d="M108.65,152.94v-1.9h3.91c.76,0,1.25-.27,1.48-.9h-3.94c-1.46,0-2.32-.68-2.32-2.28,0-1.38.9-2.43,2.32-2.43h2.46c2.18,0,3.52,1.26,3.52,3.83s-1.34,3.68-3.52,3.68h-3.91ZM110.42,148.71h3.72c-.11-.98-.62-1.37-1.58-1.37h-2.14c-.43,0-.69.18-.69.68,0,.44.26.69.69.69Z"/><path class="e" d="M130.83,152.94l-1.01-4.2-1.88,3.61c-.23.43-.51.7-.96.7s-.73-.27-.96-.7l-1.87-3.61-1.01,4.2h-1.87l1.75-6.84c.13-.52.44-.77.93-.77.4,0,.74.24.94.63l2.16,4.24,2.15-4.24c.2-.39.5-.63.9-.63.46,0,.76.26.89.77l1.74,6.84h-1.88Z"/><path class="e" d="M141.61,152.94l-.98-1.66h-4.01l.85-1.44h2.31l-1.07-1.82-2.89,4.92h-2.17l4.22-7c.23-.37.51-.61.92-.61s.68.24.91.61l4.22,7h-2.29Z"/><path class="e" d="M145.35,152.94v-7.51h1.91v7.51h-1.91Z"/><path class="d" d="M86.05,92.94v-29.46c0-4.18-3.4-7.59-7.59-7.59s-7.59,3.4-7.59,7.59v29.46"/><path class="d" d="M86.05,91.78v29.46c0,4.18-3.4,7.59-7.59,7.59s-7.59-3.4-7.59-7.59v-29.46"/><path class="d" d="M66.09,92.94v-29.46c0-4.18-3.4-7.59-7.59-7.59s-7.59,3.4-7.59,7.59v29.46"/><path class="d" d="M66.09,91.78v29.46c0,4.18-3.4,7.59-7.59,7.59s-7.59-3.4-7.59-7.59v-29.46"/><path class="d" d="M105.82,113.69v-50.2c0-4.18-3.4-7.59-7.59-7.59s-7.59,3.4-7.59,7.59v28.29h0v29.46c0,4.09,3.26,7.43,7.31,7.57.19.03.37.06.55.06h42.88s0-15.17,0-15.17h-35.57Z"/><polygon class="c" points="122.34 38.62 124.41 38.62 123.36 36.63 122.34 38.62"/><path class="c" d="M161.85,29.19H50.91v17.72h21.13s89.81,0,89.81,0c4.54,0,8.23-3.98,8.23-8.86s-3.69-8.86-8.23-8.86ZM108.65,38.19v1.31h-2.04v-1.31h2.04ZM103.97,37.48v1.09h-3.93v.84h4.25v1.27h-5.86v-5.27h5.77v1.22h-4.15v.84h3.93ZM95.99,39.79v.9h-1.62v-.63c0-.55-.16-.74-.66-.74h-2.54v1.37h-1.62v-5.27h4.88c1.25,0,1.58.62,1.58,1.57v.34c0,.71-.16,1.12-.9,1.3h0c.48.1.88.31.88,1.18ZM87.13,39.79v.9h-1.62v-.63c0-.55-.16-.74-.66-.74h-2.54v1.37h-1.62v-5.27h4.88c1.25,0,1.58.62,1.58,1.57v.34c0,.71-.16,1.12-.9,1.3h0c.48.1.88.31.88,1.18ZM78.24,37.48v1.09h-3.93v.84h4.25v1.27h-5.86v-5.27h5.77v1.22h-4.15v.84h3.93ZM70.82,36.72h-2.27v3.96h-1.62v-3.96h-2.27v-1.31h6.16v1.31ZM117.63,39.62c-.14.94-.75,1.12-2.59,1.12h-1.96c-1.47,0-2.06-.28-2.06-1.42v-.36h1.62c0,.56.23.6.7.6h1.98c.34,0,.69-.04.69-.44,0-.46-.19-.49-2.27-.49-2.43,0-2.71-.29-2.71-1.59,0-.95.09-1.69,2.13-1.69h2.26c1.86,0,2.04.63,2.04,1.56v.17h-1.62c0-.39-.04-.55-.79-.55h-1.79c-.36,0-.61.12-.61.41,0,.46.2.47,1.93.47,2.47,0,3.07.15,3.09,1.61,0,.03,0,.05,0,.07,0,.2-.01.38-.04.53ZM125.51,40.68l-.5-.93h-3.28l-.47.93h-1.81l2.86-5.27h2.11l2.9,5.27h-1.8ZM130.9,40.68h-1.62v-5.27h1.62v5.27ZM140.57,40.68h-2.51l-3.04-3.83h-.01v3.83h-1.62v-5.27h2.51l3.04,3.83h.01v-3.83h1.62v5.27ZM148.6,36.72h-2.27v3.96h-1.62v-3.96h-2.27v-1.31h6.16v1.31ZM156.33,40.68h-5.86v-5.27h5.77v1.22h-4.15v.84h3.93v1.09h-3.93v.84h4.25v1.27Z"/><path class="c" d="M84.83,36.72h-2.53v1.28h2.67c.44,0,.6-.17.6-.55v-.17c0-.47-.23-.55-.74-.55Z"/><path class="c" d="M93.7,36.72h-2.53v1.28h2.67c.44,0,.6-.17.6-.55v-.17c0-.47-.23-.55-.74-.55Z"/><polygon class="e" points="64.65 36.72 66.93 36.72 66.93 40.68 68.54 40.68 68.54 36.72 70.82 36.72 70.82 35.41 64.65 35.41 64.65 36.72"/><polygon class="e" points="74.3 38.57 78.24 38.57 78.24 37.48 74.3 37.48 74.3 36.63 78.46 36.63 78.46 35.41 72.69 35.41 72.69 40.68 78.55 40.68 78.55 39.42 74.3 39.42 74.3 38.57"/><path class="e" d="M85.57,35.41h-4.88v5.27h1.62v-1.37h2.54c.5,0,.66.18.66.74v.63h1.62v-.9c0-.87-.4-1.08-.88-1.17h0c.74-.19.9-.6.9-1.31v-.34c0-.95-.34-1.57-1.58-1.57ZM85.58,37.45c0,.38-.16.55-.6.55h-2.67v-1.28h2.53c.51,0,.74.09.74.55v.17Z"/><path class="e" d="M94.43,35.41h-4.88v5.27h1.62v-1.37h2.54c.5,0,.66.18.66.74v.63h1.62v-.9c0-.87-.4-1.08-.88-1.17h0c.74-.19.9-.6.9-1.31v-.34c0-.95-.34-1.57-1.58-1.57ZM94.44,37.45c0,.38-.16.55-.6.55h-2.67v-1.28h2.53c.51,0,.74.09.74.55v.17Z"/><polygon class="e" points="100.03 38.57 103.97 38.57 103.97 37.48 100.03 37.48 100.03 36.63 104.18 36.63 104.18 35.41 98.41 35.41 98.41 40.68 104.28 40.68 104.28 39.42 100.03 39.42 100.03 38.57"/><rect class="e" x="106.61" y="38.19" width="2.04" height="1.31"/><path class="e" d="M117.66,39.09s0-.05,0-.07c0,.2-.02.4-.03.61.02-.16.04-.33.04-.53Z"/><path class="e" d="M114.57,37.41c-1.73,0-1.93,0-1.93-.47,0-.28.25-.41.61-.41h1.79c.74,0,.79.16.79.55h1.62v-.17c0-.93-.17-1.56-2.04-1.56h-2.26c-2.04,0-2.13.74-2.13,1.69,0,1.3.28,1.59,2.71,1.59,2.08,0,2.27.03,2.27.49,0,.41-.35.44-.69.44h-1.98c-.47,0-.69-.04-.7-.6h-1.62v.36c0,1.14.59,1.42,2.06,1.42h1.96c1.84,0,2.46-.18,2.59-1.12.01-.2.02-.4.03-.61-.02-1.46-.62-1.62-3.09-1.61Z"/><path class="e" d="M122.31,35.41l-2.86,5.27h1.81l.47-.93h3.28l.5.93h1.8l-2.9-5.27h-2.11ZM122.34,38.62l1.02-1.98,1.05,1.98h-2.07Z"/><rect class="e" x="129.28" y="35.41" width="1.62" height="5.27"/><polygon class="e" points="138.95 39.24 138.94 39.24 135.9 35.41 133.39 35.41 133.39 40.68 135.01 40.68 135.01 36.85 135.02 36.85 138.06 40.68 140.57 40.68 140.57 35.41 138.95 35.41 138.95 39.24"/><polygon class="e" points="142.44 36.72 144.71 36.72 144.71 40.68 146.33 40.68 146.33 36.72 148.6 36.72 148.6 35.41 142.44 35.41 142.44 36.72"/><polygon class="e" points="152.09 38.57 156.02 38.57 156.02 37.48 152.09 37.48 152.09 36.63 156.24 36.63 156.24 35.41 150.47 35.41 150.47 40.68 156.33 40.68 156.33 39.42 152.09 39.42 152.09 38.57"/><polygon class="d" points="29.43 29.19 29.26 158.03 46.34 158.05 46.37 135.42 46.47 51.84 46.5 29.21 29.43 29.19"/><polygon class="c" points="165.14 125.18 149.3 126.22 149.3 116.32 165.14 117.37 165.14 125.18"/><path class="c" d="M144.69,112.37h2.68c.24,0,.44.32.44.71v2.15s0,12.09,0,12.09v2.15c0,.39-.2.71-.44.71h-2.68c-.24,0-.44-.32-.44-.71v-3.25s0-9.89,0-9.89v-3.25c0-.39.2-.71.44-.71Z"/><path class="c" d="M167.17,116.64h1.69c.15,0,.28.17.28.37v1.12s0,6.3,0,6.3v1.12c0,.2-.13.37-.28.37h-1.69c-.15,0-.28-.17-.28-.37v-1.69s0-5.15,0-5.15v-1.69c0-.2.13-.37.28-.37Z"/><path class="d" d="M86.05,92.94v-29.46c0-4.18-3.4-7.59-7.59-7.59s-7.59,3.4-7.59,7.59v29.46"/><path class="d" d="M86.05,91.78v29.46c0,4.18-3.4,7.59-7.59,7.59s-7.59-3.4-7.59-7.59v-29.46"/><path class="b" d="M150.42,80.36h-5.43c-.5,0-.86-.3-.86-.88s.35-.88.86-.88h8.91v-3.1h-8.91c-2.65,0-4.09,1.55-4.09,3.62s1.55,3.57,4.06,3.57h5.46c.72,0,1.16.39,1.16.99s-.44.94-1.16.94h-9.32v3.12h9.32c2.76,0,4.11-1.62,4.11-3.78,0-2.49-1.43-3.62-4.11-3.62Z"/><polygon class="b" points="113.36 87.75 116.46 87.75 116.46 83 123.61 83.07 123.61 80.51 116.46 80.44 116.46 78.6 124.11 78.6 124.11 75.5 113.36 75.5 113.36 87.75"/><path class="b" d="M137.81,75.5l-4.67,8.04-4.68-8.04h-3.81l6.88,11.43c.37.61.82.99,1.5.99s1.11-.39,1.48-.99l6.88-11.43h-3.57Z"/><path class="b" d="M165.41,75.5h-8.83v12.25h3.1v-3.19l5.73-.03c2.97,0,4.72-1.85,4.72-4.57s-1.75-4.47-4.72-4.47ZM165.41,81.54l-5.73.03v-2.96h5.73c1.05,0,1.67.57,1.67,1.47s-.62,1.47-1.67,1.47Z"/><path class="b" d="M113.36,67.68c0,1.69,1.24,2.97,2.93,2.97h3.26v-1.48h-3.26c-.85,0-1.45-.59-1.45-1.42s.62-1.45,1.45-1.45h3.26v-1.47h-3.26c-1.69,0-2.93,1.14-2.93,2.85Z"/><path class="b" d="M124.37,64.83h-1.47c-1.69,0-2.93,1.14-2.93,2.85s1.24,2.97,2.93,2.97h1.47c1.71,0,2.94-1.28,2.94-2.97s-1.2-2.85-2.94-2.85ZM124.37,69.17h-1.47c-.85,0-1.45-.59-1.45-1.42s.62-1.45,1.45-1.45h1.47c.86,0,1.47.62,1.47,1.45s-.6,1.42-1.47,1.42Z"/><path class="b" d="M132.72,68.25l-3.53-3.25c-.2-.18-.35-.26-.57-.26-.45,0-.74.34-.74.87v5.03h1.41v-3.5l3.53,3.32c.19.18.35.26.57.26.44,0,.74-.34.74-.87v-5.11h-1.41v3.5Z"/><path class="b" d="M134.7,67.68c0,1.69,1.24,2.97,2.93,2.97h3.26v-1.48h-3.26c-.85,0-1.45-.59-1.45-1.42s.62-1.45,1.45-1.45h3.26v-1.47h-3.26c-1.69,0-2.93,1.14-2.93,2.85Z"/><path class="b" d="M145.72,64.83h-1.47c-1.69,0-2.93,1.14-2.93,2.85s1.24,2.97,2.93,2.97h1.47c1.71,0,2.94-1.28,2.94-2.97s-1.2-2.85-2.94-2.85ZM145.72,69.17h-1.47c-.85,0-1.45-.59-1.45-1.42s.62-1.45,1.45-1.45h1.47c.86,0,1.47.62,1.47,1.45s-.6,1.42-1.47,1.42Z"/><path class="b" d="M154.23,68.08c0,.89-.38,1.19-1.76,1.19s-1.77-.3-1.77-1.19v-3.25h-1.53v3.25c0,1.8.93,2.65,3.25,2.65s3.25-.85,3.25-2.65v-3.25h-1.44v3.25Z"/><path class="b" d="M162.87,67.02c0-1.34-.83-2.2-2.24-2.2h-4.28v5.83h1.48v-1.62l2.16.07,1.36,1.56h2.1l-1.74-1.75c.71-.29,1.16-.93,1.16-1.88ZM160.64,67.86l-2.81-.07v-1.49h2.81c.49,0,.79.3.79.78s-.3.78-.79.78Z"/><path class="b" d="M168.18,67.14h-2.58c-.24,0-.41-.14-.41-.42s.17-.42.41-.42h4.24v-1.47h-4.24c-1.26,0-1.95.74-1.95,1.72s.74,1.7,1.93,1.7h2.6c.34,0,.55.18.55.47s-.21.45-.55.45h-4.43v1.48h4.43c1.31,0,1.96-.77,1.96-1.8,0-1.19-.68-1.72-1.96-1.72Z"/><path class="b" d="M113.36,105.07v-3.79c0-2.5,1.44-3.63,4.11-3.63h4.21c.51,0,.86-.31.86-.88s-.35-.88-.86-.88h-8.2v-3.11h8.2c2.65,0,4.11,1.56,4.11,3.63s-1.55,3.58-4.07,3.58h-4.24c-.73,0-1.15.39-1.15,1v.95h9.27v3.13h-12.22Z"/><path class="b" d="M133.46,105.23c-3.74,0-6.59-2.86-6.59-6.43s2.86-6.17,6.59-6.17,6.59,2.55,6.59,6.17-2.87,6.43-6.59,6.43ZM133.46,95.76c-2.4,0-3.47,1.39-3.47,3.2s1.05,3.14,3.45,3.14,3.47-1.32,3.47-3.14-1.05-3.2-3.45-3.2Z"/><path class="b" d="M141.32,105.07v-3.79c0-2.5,1.44-3.63,4.11-3.63h4.21c.51,0,.86-.31.86-.88s-.35-.88-.86-.88h-8.2v-3.11h8.2c2.65,0,4.11,1.56,4.11,3.63s-1.55,3.58-4.07,3.58h-4.24c-.73,0-1.15.39-1.15,1v.95h9.27v3.13h-12.22Z"/><path class="b" d="M160.6,105.07c-3.57,0-5.76-2.06-5.76-6.27s2.2-6.02,5.76-6.02h7.31v3.11h-7.31c-1.35,0-2.18.52-2.5,1.76h6.53c2.38,0,3.8,1.13,3.8,3.57s-1.46,3.85-3.8,3.85h-4.03ZM158.04,100c.25,1.4,1.08,1.94,2.55,1.94h3.72c.78,0,1.12-.37,1.12-1s-.34-.95-1.12-.95h-6.27Z"/></svg>